<?xml version="1.0" standalone="no"?>
<!DOCTYPE svg PUBLIC "-//W3C//DTD SVG 20010904//EN"
 "http://www.w3.org/TR/2001/REC-SVG-20010904/DTD/svg10.dtd">
<svg version="1.0" xmlns="http://www.w3.org/2000/svg"
 width="1088.000000pt" height="1280.000000pt" viewBox="0 0 1088.000000 1280.000000"
 preserveAspectRatio="xMidYMid meet">
<metadata>
Created by potrace 1.15, written by Peter Selinger 2001-2017
</metadata>
<g transform="translate(0.000000,1280.000000) scale(0.100000,-0.100000)"
fill="#000000" stroke="none">
<path d="M5256 12789 c-254 -29 -535 -137 -746 -287 -120 -85 -306 -270 -389
-387 -72 -103 -177 -312 -216 -430 -167 -506 -71 -1067 255 -1495 150 -197
393 -392 606 -486 l54 -24 -2 -387 -3 -388 -85 -7 c-47 -4 -229 -19 -405 -32
-176 -14 -372 -30 -435 -35 -63 -5 -325 -26 -582 -47 l-467 -37 -23 29 c-87
111 -216 174 -358 174 -176 0 -327 -96 -408 -259 -32 -65 -37 -84 -40 -167 -6
-120 19 -206 83 -293 165 -224 487 -250 683 -54 l53 52 351 -24 c345 -25 650
-46 1226 -85 158 -11 315 -22 350 -26 l62 -6 0 -2714 c0 -1493 -4 -2714 -8
-2714 -32 0 -355 34 -482 50 -1723 226 -3177 978 -3860 1995 -129 193 -241
417 -301 603 -12 39 -26 69 -30 65 -26 -27 -80 -376 -121 -773 -17 -165 -17
-709 0 -860 46 -415 132 -731 278 -1025 115 -232 109 -233 110 13 1 224 13
297 69 420 28 60 93 154 105 150 4 -2 42 -46 85 -98 159 -193 428 -443 665
-617 430 -316 892 -553 1510 -773 496 -177 1073 -465 1495 -745 307 -203 494
-354 711 -570 150 -149 274 -298 345 -414 24 -39 46 -71 49 -70 3 0 34 45 69
99 246 379 753 809 1376 1166 291 167 790 402 1065 502 448 164 603 228 875
364 559 281 1066 667 1390 1058 43 52 81 96 84 98 11 4 80 -92 106 -150 56
-123 68 -196 69 -421 1 -234 -4 -228 74 -87 161 294 264 656 314 1100 16 151
17 696 0 860 -27 262 -64 529 -88 640 -31 136 -38 154 -48 114 -17 -67 -83
-228 -142 -346 -583 -1167 -2129 -2048 -4034 -2298 -202 -26 -461 -50 -472
-44 -11 7 -10 5424 1 5424 4 0 64 4 132 10 68 5 356 26 639 45 283 20 672 47
865 60 l350 25 22 -29 c84 -108 264 -174 410 -151 332 51 494 425 307 706 -79
119 -224 194 -376 194 -125 0 -236 -49 -328 -146 l-54 -57 -466 37 c-256 21
-521 42 -590 48 -69 5 -303 24 -520 41 l-395 32 -3 386 -2 385 92 46 c321 160
576 415 738 738 168 336 212 719 125 1087 -28 116 -82 266 -131 364 -93 187
-279 412 -449 544 -337 263 -766 383 -1189 334z m396 -828 c226 -59 423 -223
524 -436 60 -129 77 -206 77 -350 0 -90 -6 -140 -22 -200 -74 -277 -281 -489
-561 -577 -64 -20 -96 -23 -220 -23 -171 0 -231 13 -365 80 -162 79 -280 198
-361 360 -69 139 -87 230 -82 395 5 116 10 147 35 222 140 407 561 636 975
529z"/>
</g>
</svg>
